<svg width="250" height="150" viewBox="0 0 250 150" fill="none" xmlns="http://www.w3.org/2000/svg">
<g clip-path="url(#clip0_160_336)">
<path d="M89.7635 32H86.4723V42.1666H89.7635V32Z" fill="black"/>
<path d="M28.7121 80.4723C34.6485 80.4723 39.8554 77.3941 42.5006 72.7383L38.8029 70.6587C36.9763 74.0954 33.0948 76.3571 28.7121 76.3571C21.222 76.3571 16.1989 70.9731 16.1989 64.0556C16.1989 57.1381 21.222 51.71 28.7121 51.71C33.0948 51.71 36.9763 53.9717 38.8029 57.4525L42.5006 55.3287C39.8053 50.6729 34.604 47.6389 28.7121 47.6389C18.9388 47.6334 12 54.9205 12 64.0556C12 73.1907 18.9388 80.4723 28.7121 80.4723Z" fill="black"/>
<path d="M67.282 58.1145C67.282 61.3305 64.7538 63.9673 61.6464 63.9673H53.2151V52.3058H61.6464C64.7593 52.3058 67.282 54.8984 67.282 58.1145ZM71.4754 58.1145C71.4754 52.7526 67.0537 48.4222 61.6408 48.4222H49.0106V79.6945H53.204V67.7185H60.644L67.7275 79.6945H72.372L64.932 67.1834C68.7188 65.8429 71.4698 62.2242 71.4698 58.1145" fill="black"/>
<path d="M83.0753 75.7612V65.8428H96.3793V61.9538H83.0753V52.3498H97.5042V48.4166H78.882V79.6889H97.7325V75.7612H83.0753Z" fill="black"/>
<path d="M122.068 68.7885H110.747L116.383 53.3758L122.063 68.7885H122.068ZM130.55 79.6889L118.777 48.4166H114.044L102.271 79.6889H106.737L109.31 72.6776H123.516L126.089 79.6889H130.555H130.55Z" fill="black"/>
<path d="M152.63 48.4166H129.854V52.3498H139.142V79.6889H143.291V52.3498H152.63V48.4166Z" fill="black"/>
<path d="M162.755 48.4166H158.561V79.6889H162.755V48.4166Z" fill="black"/>
<path d="M197.972 64.0777C197.972 71.0007 192.631 76.3791 185.642 76.3791C178.654 76.3791 173.313 70.9952 173.313 64.0777C173.313 57.1601 178.654 51.7321 185.642 51.7321C192.631 51.7321 197.972 57.116 197.972 64.0777ZM202.193 64.0556C202.193 54.9205 194.887 47.6389 185.62 47.6389C176.354 47.6389 169.092 54.9205 169.092 64.0556C169.092 73.1907 176.354 80.4723 185.62 80.4723C194.887 80.4723 202.193 73.1465 202.193 64.0556Z" fill="black"/>
<path d="M228.69 48.4166V71.7398L212.005 48.4166H208.531V79.6889H212.724V56.3271L229.525 79.6889H233V48.4166H228.69Z" fill="black"/>
<path d="M86.5169 118C79.2217 118 74.3267 113.559 74.3267 106.951V85.9445H81.5216V106.482C81.5216 109.45 83.2034 110.961 86.5169 110.961C89.8304 110.961 91.5121 109.455 91.5121 106.482V85.9445H98.7517V106.951C98.7517 113.559 93.8344 118 86.5169 118Z" fill="black"/>
<path d="M225.761 85.9445V102.902L213.971 85.9445H208.531V117.222H215.77V100.226L227.559 117.222H233V85.9445H225.761Z" fill="black"/>
<path d="M200.639 117.222H195.199L183.409 100.226V117.222H176.17V85.95H181.611L193.4 102.902V85.95H200.639V117.222Z" fill="black"/>
<path d="M159.914 105.031H153.36L156.634 95.3609L159.909 105.031H159.914ZM171.86 117.222L160.766 85.95H152.469L141.42 117.222H149.217L151.032 111.822H162.198L164.019 117.222H171.86Z" fill="black"/>
<path d="M137.104 117.222H129.904V99.3657L122.364 111.689H120.96L113.42 99.4043V117.222H106.18V85.95H113.314L121.662 99.5588L129.965 85.95H137.104V117.222Z" fill="black"/>
<path d="M59.3019 105.031H52.7474L56.0219 95.3609L59.2963 105.031H59.3019ZM71.2471 117.222L60.1539 85.95H51.8563L40.8077 117.222H48.6041L50.4196 111.822H61.5851L63.4006 117.222H71.2415H71.2471Z" fill="black"/>
<path d="M31.5245 107.502C31.5245 109.229 30.3439 110.437 28.6509 110.437H22.3971V104.617H28.6509C30.316 104.617 31.5245 105.831 31.5245 107.508M30.355 95.416C30.355 96.9661 29.2579 98.0914 27.7432 98.0914H22.4027V92.7406H27.7432C29.2802 92.7406 30.355 93.8383 30.355 95.416ZM35.1554 100.949C36.7592 99.3933 37.6001 97.3633 37.6001 95.0299C37.6001 89.8555 33.3622 85.9554 27.7488 85.9554H15.1576V117.228H28.6509C34.3924 117.228 38.7194 113.217 38.7194 107.894C38.7194 104.981 37.4609 102.549 35.1498 100.949" fill="black"/>
</g>
<defs>
<clipPath id="clip0_160_336">
<rect width="221" height="86" fill="white" transform="translate(12 32)"/>
</clipPath>
</defs>
</svg>
