<svg width="250" height="150" viewBox="0 0 250 150" fill="none" xmlns="http://www.w3.org/2000/svg">
<g clip-path="url(#clip0_160_409)">
<path d="M0 52.1884V102.688H50.1605L24.8179 77.4404L50.1605 52.1884H0Z" fill="black"/>
<path d="M53.9264 52.1884L104.616 102.688V52.1884H53.9264Z" fill="black"/>
<path d="M250 81.1219H246.697V90.3828H237.86V81.1219H234.557V102.816H237.86V93.3394H246.697V102.816H250V81.1219ZM231.1 81.1219H215.811V84.0786H221.804V102.816H225.107V84.0786H231.1V81.1219ZM208.121 86.0291L211.486 95.6546H204.787L208.121 86.0291ZM209.47 81.1219H206.811L198.83 102.816H202.349L203.848 98.4575H212.442L213.942 102.816H217.456L209.475 81.1219H209.47ZM188.881 84.0786C191.082 84.0786 192.581 85.357 192.581 87.4921C192.581 89.6272 191.082 90.8748 188.881 90.8748H183.987V84.083H188.881V84.0786ZM180.684 81.1219V102.816H183.987V93.6777H188.114L192.7 102.816H196.554L191.54 93.2164C193.988 92.5442 195.884 90.5673 195.884 87.4569C195.884 83.771 193.256 81.1219 189.124 81.1219H180.684ZM175.639 81.1219H172.336V95.3515C172.336 98.2466 170.533 100.043 167.812 100.043C165.091 100.043 163.318 98.2466 163.318 95.3515V81.1219H160.015V95.5009C160.015 99.9775 163.38 102.996 167.812 102.996C172.243 102.996 175.639 99.9775 175.639 95.5009V81.1219ZM156.13 81.1219H142.218V102.816H156.13V99.8589H145.521V93.3702H154.574V90.4135H145.521V84.0786H156.13V81.1219ZM136.322 81.1219H133.019V96.3839L122.961 81.1219H119.931V102.816H123.234V87.5536L133.292 102.816H136.322V81.1219Z" fill="black"/>
<path d="M220.287 57.4734H217.381V62.5607H212.244V65.4558H217.381V70.5739H220.287V65.4558H225.425V62.5607H220.287V57.4734ZM197.758 52.3641C195.372 52.3641 193.538 53.1549 192.131 54.5563C190.019 56.687 189.931 58.8528 189.931 63.391C189.931 67.9292 190.023 70.095 192.131 72.2257C193.538 73.6271 195.372 74.4179 197.758 74.4179C200.144 74.4179 202.133 73.6579 203.751 71.9489C205.188 70.3937 205.709 68.6584 205.709 65.8248V62.5036H197.758V65.3064H202.406V66.5233C202.406 67.9248 202.133 69.0231 201.334 69.9368C200.479 70.9429 199.196 71.4613 197.758 71.4613C196.444 71.4613 195.342 71.0044 194.517 70.1521C193.445 68.9923 193.234 67.6831 193.234 63.3866C193.234 59.0901 193.45 57.7809 194.517 56.6211C195.342 55.7688 196.444 55.3119 197.758 55.3119C200.205 55.3119 201.793 56.6826 202.344 59.0593H205.647C205.065 55.3734 202.344 52.3553 197.758 52.3553M184.833 52.5442H181.53V74.2378H184.833V52.5442ZM176.146 52.5442H172.843V67.8062L162.78 52.5442H159.755V74.2378H163.058V58.9714L173.121 74.2334H176.15V52.5442H176.146ZM144.934 47H142.121V50.2905H144.934V47ZM151.54 47H148.726V50.2905H151.54V47ZM146.83 55.3163C148.144 55.3163 149.247 55.7732 150.071 56.6255C151.174 57.7545 151.355 59.0945 151.355 63.391C151.355 67.6875 151.169 68.9967 150.071 70.1258C149.247 70.978 148.144 71.4657 146.83 71.4657C145.516 71.4657 144.414 70.978 143.589 70.1258C142.518 68.966 142.306 67.6875 142.306 63.391C142.306 59.0945 142.522 57.7853 143.589 56.6255C144.414 55.7732 145.516 55.3163 146.83 55.3163ZM146.83 52.3641C144.445 52.3641 142.61 53.1549 141.203 54.5563C139.06 56.687 139.003 58.8528 139.003 63.391C139.003 67.9292 139.065 70.095 141.203 72.2257C142.61 73.6271 144.445 74.4179 146.83 74.4179C149.216 74.4179 151.05 73.6271 152.457 72.2257C154.596 70.095 154.658 67.9292 154.658 63.391C154.658 58.8528 154.596 56.687 152.457 54.5563C151.05 53.1549 149.216 52.3641 146.83 52.3641ZM136.172 52.5442H132.137L123.238 63.4525V52.5442H119.935V74.2378H123.238V67.9292L126.907 63.5404L133.023 74.2334H136.908L129.112 61.0406L136.176 52.5398L136.172 52.5442Z" fill="black"/>
</g>
<defs>
<clipPath id="clip0_160_409">
<rect width="250" height="56" fill="white" transform="translate(0 47)"/>
</clipPath>
</defs>
</svg>
