<svg width="250" height="150" viewBox="0 0 250 150" fill="none" xmlns="http://www.w3.org/2000/svg">
<g clip-path="url(#clip0_160_486)">
<path d="M53.2835 97.1396H46.91L27 54.5535L33.0077 51.8977L50.0871 88.4429L67.1666 51.8977L73.1743 54.5535L53.2835 97.1584V97.1396Z" fill="black"/>
<path d="M163.828 96.5225V52.2905H170.433V96.5225H163.828Z" fill="black"/>
<path d="M115.016 93.8292L115.42 94.6896L109.413 97.3454L101.306 80.0079H83.3603L75.2538 97.3454L69.2462 94.6896L89.1369 52.0847H95.5105L115.016 93.8292ZM98.3025 73.5742L92.3141 60.7815L86.3257 73.5742H98.2832H98.3025Z" fill="black"/>
<path d="M201.781 51C213.603 51.0187 222.961 61.6232 222.981 74.5094C222.961 87.3955 213.603 97.9813 201.781 98.0187C189.958 98 180.6 87.3955 180.581 74.5094C180.6 61.6232 189.958 51.0187 201.781 51ZM201.781 91.5289C210.022 91.5289 216.184 84.0478 216.203 74.4907C216.184 64.9148 210.022 57.4524 201.781 57.4524C193.539 57.4524 187.378 64.9335 187.358 74.4907C187.378 84.0665 193.539 91.5289 201.781 91.5289Z" fill="black"/>
<path d="M135.061 79.4095V79.3347L129.65 73.4994H136.024C140.202 73.4994 143.572 70.2077 143.572 66.1679C143.572 62.1094 140.183 58.8365 136.024 58.8365H127.686V96.5412H121.082V52.4214H125.664L136.967 52.4027V52.5336C144.342 53.0199 150.157 58.9674 150.157 66.2614C150.157 71.4608 147.173 75.9869 142.802 78.3247L156.319 93.4926L151.37 97.7569L135.042 79.4469L135.061 79.4095Z" fill="black"/>
</g>
<defs>
<clipPath id="clip0_160_486">
<rect width="196" height="47" fill="white" transform="translate(27 51)"/>
</clipPath>
</defs>
</svg>
