<svg width="250" height="150" viewBox="0 0 250 150" fill="none" xmlns="http://www.w3.org/2000/svg">
<g clip-path="url(#clip0_160_381)">
<path d="M26 67.1597H41.626L50.9721 87.1264L60.7384 67.1597H76.1543L55.7817 105.942H46.1415L26 67.1597Z" fill="black"/>
<path d="M92.5153 67.1597H77.9395V105.942H92.5153V67.1597Z" fill="black"/>
<path d="M85.3114 62.0947C90.5621 62.0947 94.8256 57.846 94.8256 52.6136C94.8256 47.3813 90.5621 43.1326 85.3114 43.1326C80.0608 43.1326 75.7972 47.3813 75.7972 52.6136C75.7972 57.846 80.0608 62.0947 85.3114 62.0947Z" fill="black"/>
<path d="M100.16 55.1462L114.232 55.0415V67.1597H122.633L122.717 78.357L114.232 78.4407L114.127 105.942H99.9713L100.055 78.4407H95.8758V67.1597H100.097L100.16 55.1462Z" fill="black"/>
<path d="M126.183 67.1596H140.758L140.653 72.7059C140.653 72.7059 144.896 65.4853 155.082 66.3224C155.04 72.8524 155.082 74.0664 155.082 79.4871C150.567 77.3941 140.674 79.3406 140.632 85.6613C140.611 89.8472 140.611 105.942 140.611 105.942H126.204V67.1596H126.183Z" fill="black"/>
<path d="M170.75 66.4481C176.946 65.0458 183.478 67.055 187.909 71.3037C187.867 69.9433 187.867 67.1597 187.867 67.1597H201.015L200.826 105.942H187.699C187.699 105.942 187.573 103.158 187.699 101.651C182.134 108.558 171.947 109.333 164.47 104.561C158.926 101.003 156.195 95.6866 155.334 89.5124C153.906 79.3197 160.186 68.834 170.75 66.4481ZM178.857 96.3563C184.108 96.3563 188.371 92.1076 188.371 86.8752C188.371 81.6429 184.108 77.3942 178.857 77.3942C173.607 77.3942 169.343 81.6429 169.343 86.8752C169.343 92.1076 173.607 96.3563 178.857 96.3563Z" fill="black"/>
<path d="M215.486 107.868C220.736 107.868 225 103.619 225 98.3865C225 93.1541 220.736 88.9054 215.486 88.9054C210.235 88.9054 205.972 93.1541 205.972 98.3865C205.972 103.619 210.235 107.868 215.486 107.868Z" fill="black"/>
</g>
<defs>
<clipPath id="clip0_160_381">
<rect width="199" height="64.7349" fill="white" transform="translate(26 43.1326)"/>
</clipPath>
</defs>
</svg>
