<svg width="250" height="150" viewBox="0 0 250 150" fill="none" xmlns="http://www.w3.org/2000/svg">
<g clip-path="url(#clip0_160_501)">
<path d="M37.5538 87.4L27.5171 52.7059L27.4995 52.6176H22.3665L12.3121 87.4706L5.39759 52.0882L5.37995 52H0L8.81959 96.1L8.83723 96.1882H14.8522L24.9242 61.0882L34.855 96.1L34.8726 96.1882H40.9405L49.7072 52.1412L49.7248 52H44.486L37.5538 87.4Z" fill="black"/>
<path d="M63.1129 52H57.1333V58.0353H63.1129V52Z" fill="black"/>
<path d="M62.7602 64.5824H57.1333V96.1883H62.7602V64.5824Z" fill="black"/>
<path d="M72.9556 92.4294C72.9556 94.5118 74.649 96.1882 76.7128 96.1882H78.4414V52H72.938V92.4294H72.9556Z" fill="black"/>
<path d="M114.866 64.5824H108.181L94.1579 80.2176V52H88.6545V96.1882H94.1579V87.6824L100.049 81.1353L109.751 96.1353L109.786 96.1882H116.013L103.613 77.1118L114.866 64.5824Z" fill="black"/>
<path d="M137.003 63.7882C133.282 63.7882 129.771 65.6059 127.937 68.4647V52H122.434V96.1882H127.937V81.5059C127.937 79.5647 127.937 75.9647 129.048 73.5647C130.495 70.5294 132.946 68.8 135.769 68.8C140.32 68.8 142.542 71.2176 142.542 76.1941V96.2059H148.046V75.4529C148.046 67.9353 144.13 63.8059 137.021 63.8059L137.003 63.7882Z" fill="black"/>
<path d="M181.348 74.7471C181.348 72.9471 181.031 71.3059 180.413 69.8589C178.702 65.9412 174.751 63.7706 169.283 63.7706C165.173 63.7706 161.54 65.0412 159.529 67.1589C157.712 69.0471 156.83 71.1647 156.777 73.8118V73.9353H162.157V73.8295C162.157 72.3824 162.668 71.1295 163.674 70.1236C164.873 68.9236 166.814 68.2883 169.301 68.2883C171.612 68.2883 173.217 68.7824 174.363 69.8765C175.757 71.1471 175.933 73.053 175.933 74.5706V76.7589L166.496 77.3059C155.772 77.9236 155.242 85.6706 155.242 87.2236C155.242 91.9353 158.647 97.0177 166.143 97.0177C170.536 97.0177 174.399 95.0942 176.251 91.9706V96.2059H181.366V86.6059V74.8L181.348 74.7471ZM175.915 82.8118C175.915 85.6 174.981 88.1059 173.287 89.8706C171.735 91.4942 169.477 92.3765 166.919 92.3765C163.109 92.3765 160.834 90.4 160.834 87.1C160.834 83.3236 164.327 81.7706 167.607 81.5765L175.915 81.0824V82.8295V82.8118Z" fill="black"/>
<path d="M204.42 63.7882C200.698 63.7882 197.188 65.6059 195.354 68.4647V52H189.85V96.1882H195.354V81.5059C195.354 79.5647 195.354 75.9647 196.465 73.5647C197.912 70.5294 200.363 68.8 203.186 68.8C207.737 68.8 209.959 71.2176 209.959 76.1941V96.2059H215.462V75.4529C215.462 67.9353 211.547 63.8059 204.438 63.8059L204.42 63.7882Z" fill="black"/>
<path d="M239.046 63.7882C235.642 63.7882 231.408 65.5706 229.644 68.9941L229.239 64.6882V64.5823H224.423V96.1882H229.927V81.5059C229.927 79.5647 229.927 75.9647 231.038 73.5647C232.484 70.5294 234.936 68.8 237.758 68.8C242.309 68.8 244.532 71.2176 244.532 76.1941V96.2059H250.035V75.4529C250.035 67.9353 246.137 63.8059 239.081 63.8059L239.046 63.7882Z" fill="black"/>
</g>
<defs>
<clipPath id="clip0_160_501">
<rect width="250" height="45" fill="white" transform="translate(0 52)"/>
</clipPath>
</defs>
</svg>
