<svg width="250" height="150" viewBox="0 0 250 150" fill="none" xmlns="http://www.w3.org/2000/svg">
<path d="M22.2291 97.7356L9 49.9144H21.8689L29.6743 84.0384L37.9199 49.9144H49.1277L56.853 84.0384L65.4589 49.9144H77.3872L64.2381 97.7356H50.7088L43.3437 69.6265L35.6784 97.7356H22.2291Z" fill="black"/>
<path d="M95.6196 49.9144V97.7356H82.8909V49.9144H95.6196Z" fill="black"/>
<path d="M105.166 97.7356V49.9144H118.255L136.108 79.5123V49.9144H148.396V97.7356H135.888L117.455 67.7605V97.7356H105.166Z" fill="black"/>
<path d="M170.691 49.9144V97.7356H157.963V49.9144H170.691Z" fill="black"/>
<path d="M176.355 49.9144H208.678V99.2641L176.355 49.9144Z" fill="black"/>
<path d="M208.678 49.9144H240.98L241 99.2641L208.678 49.9144Z" fill="black"/>
</svg>
