<svg width="250" height="150" viewBox="0 0 250 150" fill="none" xmlns="http://www.w3.org/2000/svg">
<g clip-path="url(#clip0_160_462)">
<path d="M55.7123 84.4821L45.7053 75.4463C43.8924 73.8686 42.6379 72.4558 41.9563 71.2008C41.2674 69.9459 40.9193 68.5618 40.9193 67.0558C40.9193 64.9044 41.4777 63.2335 42.6089 62.0574C43.7329 60.8742 45.3064 60.2789 47.3368 60.2789C49.3673 60.2789 50.9263 60.8742 52.014 62.0574C53.1018 63.2407 53.6456 64.9044 53.6456 67.0558V71.4662H62.4561V66.518C62.4561 62.0718 61.1001 58.5578 58.3808 55.9761C55.6615 53.3945 51.9778 52.1036 47.3368 52.1036C42.6959 52.1036 38.8889 53.4662 36.1333 56.1913C33.3778 58.9164 32 62.6096 32 67.271C32 70.1395 32.5801 72.7068 33.7404 74.9658C34.9006 77.2248 36.8947 79.6128 39.7228 82.1156L49.6211 91.0439C51.2164 92.4781 52.3766 93.8909 53.1018 95.2893C53.8269 96.6877 54.1895 98.2869 54.1895 100.073C54.1895 102.654 53.6239 104.59 52.4999 105.881C51.3759 107.172 49.7298 107.818 47.5544 107.818C45.3789 107.818 43.7981 107.194 42.6016 105.939C41.4051 104.684 40.8033 102.912 40.8033 100.618V95.2391H32V101.155C32 105.745 33.3778 109.367 36.1333 112.02C38.8889 114.673 42.6959 116 47.5544 116C52.4129 116 56.1981 114.566 58.9174 111.697C61.6367 108.829 62.9928 104.813 62.9928 99.6495C62.9928 96.4941 62.4489 93.769 61.3612 91.4742C60.2735 89.1793 58.3881 86.8487 55.705 84.4821H55.7123Z" fill="black"/>
<path d="M85.7333 52.1036C81.0924 52.1036 77.3361 53.4662 74.4791 56.1913C71.6147 58.9164 70.1862 62.4662 70.1862 66.8407V101.263C70.1862 105.638 71.6147 109.187 74.4791 111.912C77.3434 114.637 81.0924 116 85.7333 116C90.3743 116 94.0725 114.659 96.8281 111.97C99.5836 109.281 100.961 105.716 100.961 101.27V95.2463H92.1509V100.947C92.1509 103.171 91.5853 104.87 90.4685 106.053C89.3446 107.237 87.7637 107.825 85.7333 107.825C83.7029 107.825 81.9843 107.237 80.7878 106.053C79.5913 104.87 78.9895 103.171 78.9895 100.947V91.7897L100.961 79.2184V66.8479C100.961 62.4016 99.5836 58.8375 96.8281 56.1483C94.0725 53.459 90.3743 52.118 85.7333 52.118V52.1036ZM78.9895 66.9483C78.9895 64.7969 79.5913 63.1475 80.7878 62.0001C81.9843 60.8526 83.6304 60.2789 85.7333 60.2789C87.8363 60.2789 89.4316 60.8526 90.5193 62.0001C91.607 63.1475 92.1509 64.7969 92.1509 66.9483V74.808L78.9895 82.4096V66.9483Z" fill="black"/>
<path d="M130.874 55.1801C128.829 53.1363 126.001 52.1036 122.389 52.1036C118.256 52.1036 114.971 53.4303 112.542 56.0837C110.113 58.7371 108.902 62.3227 108.902 66.8406V101.263C108.902 105.781 110.113 109.367 112.542 112.02C114.971 114.673 118.249 116 122.389 116C125.87 116 128.589 114.888 130.547 112.665C130.823 112.357 131.069 112.02 131.309 111.676V115.462H139.575V35H130.874V55.1801ZM129.133 105.996C127.973 107.215 126.342 107.825 124.239 107.825C122.136 107.825 120.504 107.215 119.344 105.996C118.184 104.777 117.604 103.092 117.604 100.94V67.1633C117.604 65.012 118.184 63.3267 119.344 62.1076C120.504 60.8884 122.136 60.2789 124.239 60.2789C126.342 60.2789 127.973 60.8884 129.133 62.1076C130.294 63.3267 130.874 65.012 130.874 67.1633V100.94C130.874 103.092 130.294 104.777 129.133 105.996Z" fill="black"/>
<path d="M170.467 100.94C170.467 103.092 169.901 104.777 168.777 105.996C167.653 107.215 166.036 107.825 163.94 107.825C161.845 107.825 160.206 107.215 159.046 105.996C157.885 104.777 157.305 103.092 157.305 100.94V52.6415H148.386V101.263C148.386 105.637 149.815 109.187 152.679 111.912C155.543 114.637 159.299 116 163.94 116C168.581 116 172.316 114.652 175.144 111.963C177.972 109.273 179.386 105.709 179.386 101.263V52.6415H170.467V100.94Z" fill="black"/>
<path d="M216.368 91.4742C215.281 89.1793 213.395 86.8487 210.712 84.4821L200.705 75.4463C198.892 73.8686 197.638 72.4558 196.956 71.2008C196.267 69.9459 195.927 68.5618 195.927 67.0558C195.927 64.9044 196.485 63.2335 197.616 62.0574C198.74 60.8742 200.314 60.2789 202.344 60.2789C204.375 60.2789 205.934 60.8742 207.021 62.0574C208.109 63.2407 208.653 64.9044 208.653 67.0558V71.4662H217.463V66.518C217.463 62.0718 216.107 58.5578 213.388 55.9761C210.669 53.3945 206.985 52.1036 202.344 52.1036C197.703 52.1036 193.896 53.4662 191.141 56.1913C188.385 58.9164 187.007 62.6096 187.007 67.271C187.007 70.1395 187.587 72.7068 188.748 74.9658C189.908 77.2248 191.902 79.6128 194.73 82.1156L204.628 91.0439C206.224 92.4781 207.384 93.8909 208.109 95.2893C208.834 96.6877 209.197 98.2869 209.197 100.073C209.197 102.654 208.631 104.59 207.507 105.881C206.383 107.172 204.737 107.818 202.562 107.818C200.386 107.818 198.805 107.194 197.609 105.939C196.412 104.684 195.811 102.912 195.811 100.618V95.2391H187V101.155C187 105.745 188.378 109.367 191.133 112.02C193.889 114.673 197.696 116 202.554 116C207.413 116 211.198 114.566 213.917 111.697C216.637 108.829 217.993 104.813 217.993 99.6495C217.993 96.4941 217.449 93.769 216.361 91.4742H216.368Z" fill="black"/>
</g>
<defs>
<clipPath id="clip0_160_462">
<rect width="186" height="81" fill="white" transform="translate(32 35)"/>
</clipPath>
</defs>
</svg>
