<svg width="250" height="150" viewBox="0 0 250 150" fill="none" xmlns="http://www.w3.org/2000/svg">
<g clip-path="url(#clip0_160_419)">
<path d="M51.0021 53.3189C51.0021 41.3336 51.0021 29.3349 51.0021 17.3497C51.0021 13.9831 51.9556 13 55.2726 13C55.8635 13 56.4543 12.9865 57.0452 13C58.791 13.0673 60.0668 14.2793 60.2279 16.0165C60.2682 16.5013 60.2279 16.9861 60.2279 17.4709C60.2279 41.2394 60.2279 65.0078 60.2279 88.7628C60.2279 93.2741 59.543 93.9609 54.9771 93.9205C54.346 93.9205 53.6611 93.8936 53.0836 93.6781C51.4722 93.0587 50.9753 91.7659 50.9753 90.0825C51.0021 77.828 50.9887 65.56 50.9887 53.3054L51.0021 53.3189Z" fill="black"/>
<path d="M69.682 53.3458C69.682 44.9022 69.682 36.4452 69.682 28.0017C69.682 25.0121 70.7563 23.9483 73.7644 23.9348C74.409 23.9348 75.0536 23.9214 75.6982 23.9348C77.4977 23.9887 78.7198 25.0929 78.9481 26.8705C79.0152 27.3419 78.9749 27.8401 78.9749 28.3249C78.9749 45.0638 78.9749 61.7893 78.9749 78.5282C78.9749 82.0295 77.9812 83.026 74.4762 83.026C74.1002 83.026 73.7241 83.026 73.3481 83.026C70.9443 82.9991 69.6954 81.7602 69.682 79.3227C69.6686 70.6638 69.682 62.0048 69.682 53.3323V53.3458Z" fill="black"/>
<path d="M144.643 116.719C145.341 110.04 147.786 108.222 154.245 109.38V113.151C150.337 113.353 150.069 113.582 150.283 116.531H156.743C156.837 114.093 156.89 111.602 159.267 110.107C161.416 108.761 163.766 109.03 166.197 109.286V113.164C162.41 113.299 162.182 113.501 162.41 116.612H165.875V120.221C164.679 120.275 163.578 120.328 162.302 120.382V136.34H156.904C156.877 135.707 156.81 135.142 156.81 134.563C156.81 130.307 156.77 126.065 156.837 121.81C156.85 120.584 156.461 120.207 155.279 120.261C153.641 120.355 151.989 120.288 150.163 120.288V136.313H144.764V120.382C143.636 120.315 142.683 120.275 141.608 120.207V116.706H144.643V116.719Z" fill="black"/>
<path d="M97.6548 53.5612C97.6548 58.2341 97.6548 62.9205 97.6548 67.5934C97.6548 70.2193 96.4596 71.4044 93.8141 71.4448C93.2232 71.4448 92.6323 71.4583 92.0414 71.4448C89.6511 71.3775 88.4022 70.152 88.3753 67.7146C88.335 64.1729 88.3753 60.6177 88.3753 57.0625C88.3753 51.2584 88.3753 45.4544 88.3753 39.6368C88.3753 36.6068 89.5302 35.4756 92.5652 35.4622C93.156 35.4622 93.7469 35.4352 94.3378 35.4891C96.473 35.6372 97.6414 36.8627 97.6548 39.0443C97.6817 43.8788 97.6548 48.7267 97.6548 53.5612Z" fill="black"/>
<path d="M37.4253 136.381H32.1208V109.219H37.3448V118.645C38.9965 117.824 40.5275 116.625 42.2195 116.302C46.4363 115.494 50.183 117.339 50.3441 122.119C50.5053 126.833 50.3844 131.546 50.3844 136.354H45.0531C45.0531 135.155 45.0531 134.051 45.0531 132.933C45.0128 129.768 45.0799 126.59 44.8651 123.426C44.7308 121.419 43.6699 120.557 41.9107 120.45C39.762 120.315 38.3251 121.163 37.8148 123.035C37.5462 124.005 37.4522 125.042 37.4388 126.052C37.3985 129.432 37.4253 132.812 37.4253 136.381Z" fill="black"/>
<path d="M103.389 109.097V119.184C105.538 116.679 107.941 115.723 110.869 116.208C114.173 116.746 116.106 118.483 116.254 121.81C116.456 126.577 116.308 131.371 116.308 136.3H110.95C110.95 134.765 110.95 133.27 110.95 131.788C110.936 129.041 110.99 126.294 110.842 123.56C110.735 121.635 109.741 120.679 108.143 120.477C106.021 120.221 104.41 120.975 103.846 122.752C103.496 123.857 103.402 125.069 103.389 126.24C103.335 129.566 103.362 132.879 103.362 136.327H98.004V109.097C98.8903 109.097 99.7363 109.097 100.569 109.097C101.402 109.097 102.274 109.097 103.376 109.097H103.389Z" fill="black"/>
<path d="M218.946 127.897H204.832C204.765 129.89 205.302 131.425 206.994 132.354C208.7 133.283 211.587 133.189 212.688 131.708C213.87 130.105 215.267 130.28 216.784 130.28C217.308 130.28 217.832 130.28 218.355 130.28C217.993 134.67 213.548 137.444 207.948 136.933C202.442 136.434 198.803 131.708 199.313 125.755C199.85 119.642 204.389 115.575 210.137 116.086C215.804 116.585 219.497 121.419 218.933 127.897H218.946ZM213.373 124.355C212.903 121.325 211.319 119.992 208.713 120.221C206.712 120.396 204.51 122.254 204.98 124.355H213.387H213.373Z" fill="black"/>
<path d="M41.2929 53.5612C41.2929 56.9952 41.2929 60.4426 41.2929 63.8766C41.2929 66.4891 40.1649 67.6337 37.6134 67.6741C32.5909 67.728 32 67.1489 32 62.0586C32 55.8236 32 49.5886 32 43.3535C32 40.3101 33.1549 39.1789 36.1899 39.152C36.727 39.152 37.2642 39.1385 37.8014 39.152C39.9903 39.2462 41.2661 40.539 41.2795 42.7341C41.3064 46.3297 41.2795 49.9387 41.2795 53.5343L41.2929 53.5612Z" fill="black"/>
<path d="M129.723 136.946C123.546 136.946 119.585 132.879 119.598 126.536C119.598 120.248 123.627 116.1 129.737 116.059C136.035 116.033 140.118 120.194 140.104 126.631C140.091 133 136.116 136.946 129.723 136.946ZM124.835 126.55C125.171 127.897 125.359 129.189 125.829 130.361C126.554 132.139 128.018 132.893 129.938 132.852C131.792 132.825 133.175 132.031 133.886 130.334C134.961 127.789 134.974 125.203 133.819 122.672C133.054 120.975 131.617 120.221 129.817 120.207C128.058 120.207 126.621 120.934 125.923 122.564C125.386 123.816 125.171 125.217 124.822 126.55H124.835Z" fill="black"/>
<path d="M67.7482 116.733H73.1199V136.327H68.1377C68.0974 135.572 68.0705 134.886 68.0302 133.849C66.0965 136.461 63.5987 137.148 60.7517 136.973C57.5556 136.771 55.1786 135.061 55.004 131.963C54.722 126.94 54.9235 121.904 54.9235 116.773H60.1205C60.1205 117.568 60.1205 118.335 60.1205 119.116C60.1608 122.55 60.0399 126.011 60.2951 129.432C60.51 132.448 63.4106 133.755 65.9219 132.152C67.4662 131.169 67.7214 129.553 67.7482 127.91C67.7885 124.786 67.7482 121.675 67.7482 118.551C67.7482 118.012 67.7482 117.487 67.7482 116.76V116.733Z" fill="black"/>
<path d="M94.1498 122.362H89.2079C88.1604 120.073 86.0521 119.103 83.7154 119.992C83.1648 120.207 82.4933 120.881 82.4262 121.406C82.3591 121.931 82.8559 122.833 83.3394 123.049C84.642 123.628 86.0789 123.937 87.4621 124.328C88.5499 124.638 89.651 124.84 90.7254 125.19C92.8472 125.877 94.4855 127.116 94.7138 129.526C94.9555 132.017 94.0961 134.078 91.9743 135.505C88.8319 137.619 82.1576 137.512 79.0555 135.29C77.3366 134.051 76.4368 132.368 76.4368 130.092H81.3922C82.4396 133.027 85.2195 134.28 87.8381 132.825C88.4693 132.475 89.1273 131.56 89.1542 130.886C89.181 130.321 88.429 129.418 87.8113 129.176C86.1729 128.53 84.4406 128.166 82.7351 127.681C81.9159 127.452 81.0699 127.25 80.2775 126.954C78.3169 126.24 76.9471 124.974 76.8263 122.752C76.7054 120.436 77.4709 118.389 79.633 117.366C83.4065 115.561 87.3144 115.521 91.1014 117.366C93.0083 118.295 93.9752 120.019 94.1229 122.362H94.1498Z" fill="black"/>
<path d="M197.07 128.88C196.667 134.239 192.666 137.269 186.582 136.946C181.264 136.677 177.504 132.273 177.625 126.496C177.759 120.275 181.654 116.181 187.536 116.073C192.921 115.979 196.721 118.941 196.923 123.533H192.209C191.282 122.456 190.665 121.298 189.698 120.692C187.764 119.507 185.266 120.288 184.152 122.321C182.661 125.042 182.674 127.897 184.004 130.671C184.81 132.341 186.287 132.987 188.14 132.839C189.913 132.704 191.081 131.735 191.551 130.119C191.86 129.055 192.37 128.799 193.364 128.853C194.586 128.92 195.808 128.866 197.043 128.866L197.07 128.88Z" fill="black"/>
<path d="M116.335 53.5881C116.335 54.6655 116.335 55.7293 116.335 56.8066C116.335 57.1837 116.335 57.5608 116.254 57.9244C115.771 59.8905 114.025 60.6042 110.332 60.3618C108.546 60.2406 107.23 59.1094 107.163 57.3588C107.055 54.7328 107.015 52.0933 107.163 49.4808C107.297 47.205 109.164 46.3566 112.991 46.5586C115.059 46.6663 116.281 47.8783 116.335 49.8983C116.362 51.1372 116.335 52.3627 116.335 53.6016V53.5881Z" fill="black"/>
<path d="M173.851 136.354H168.628V116.746H173.851V136.354Z" fill="black"/>
<path d="M173.878 109.219C173.919 109.528 173.959 109.784 173.959 110.04C173.959 111.158 173.959 112.275 173.959 113.514H168.614V109.219H173.865H173.878Z" fill="black"/>
</g>
<defs>
<clipPath id="clip0_160_419">
<rect width="187" height="124" fill="white" transform="translate(32 13)"/>
</clipPath>
</defs>
</svg>
